<?xml version="1.0" encoding="utf-8"?>
<!-- Generator: Adobe Illustrator 25.4.1, SVG Export Plug-In . SVG Version: 6.00 Build 0)  -->
<svg version="1.1" id="Capa_1" xmlns="http://www.w3.org/2000/svg" xmlns:xlink="http://www.w3.org/1999/xlink" x="0px" y="0px"
	 viewBox="0 0 600 600" style="enable-background:new 0 0 600 600;" xml:space="preserve">
<style type="text/css">
	.st0{fill:#FFFFFF;}
</style>
<g>
	<path d="M0,317c0-11.3,0-22.7,0-34c0.3-1.6,0.7-3.2,0.9-4.8c3.1-18.7,4.8-37.8,9.6-56C28,156.6,64.2,103,118,61.7
		C160,29.4,207.3,9.9,259.8,2.9c7.7-1,15.5-1.9,23.2-2.9c11.3,0,22.7,0,34,0c1.6,0.3,3.2,0.8,4.8,0.9c23.9,1.6,47.2,6,69.9,13.5
		C456.2,35.6,508.1,74,546.9,129.8c27.3,39.2,44,82.7,50.3,130.1c1,7.7,1.9,15.4,2.9,23.2c0,11.3,0,22.7,0,34
		c-0.3,1.6-0.8,3.2-0.9,4.8c-1.7,24-6.1,47.5-13.7,70.4c-21.3,64.5-59.8,116.2-115.6,154.9c-39.3,27.2-82.7,43.9-130.1,50
		c-7.6,1-15.1,1.9-22.7,2.8c-11.3,0-22.7,0-34,0c-1.6-0.3-3.2-0.7-4.8-0.9c-18.7-3.1-37.8-4.8-56-9.6
		C156.8,572.1,103.3,536,62,482.4c-32.4-42-52.1-89.5-59.1-142.1C1.9,332.5,1,324.7,0,317z M299.9,572.9
		c150.4,0.1,272.8-122.2,272.9-272.8c0.1-150.4-122.2-272.8-272.8-272.9C149.6,27,27.2,149.3,27.1,299.9
		C27,450.3,149.3,572.7,299.9,572.9z"/>
	<path d="M300,518c-1.5-2.4-2.6-4.1-3.6-5.8c-38.6-64.6-77.2-129.2-115.7-193.8c-49.8-83.3-3.6-188.9,91.4-209
		c78-16.5,155.5,38,166.2,117.1c4.4,32.9-1.8,63.5-18.9,92c-38.7,64.7-77.3,129.5-116,194.2C302.4,514.2,301.4,515.7,300,518z
		 M299.3,308.5c32.8,0.7,60.1-25.7,61-59.2c0.9-33.5-25.6-60.8-59.6-61.5c-33.1-0.7-60.4,25.9-61,59.6
		C239.1,280.6,265.5,307.7,299.3,308.5z"/>
	<path class="st0" d="M299.3,308.5c-33.8-0.7-60.2-27.9-59.6-61.1c0.6-33.7,27.9-60.3,61-59.6c34,0.7,60.5,28,59.6,61.5
		C359.4,282.7,332.1,309.2,299.3,308.5z"/>
</g>
</svg>
