<?xml version="1.0" encoding="utf-8"?>
<!-- Generator: Adobe Illustrator 25.4.1, SVG Export Plug-In . SVG Version: 6.00 Build 0)  -->
<svg version="1.1" id="Capa_1" xmlns="http://www.w3.org/2000/svg" xmlns:xlink="http://www.w3.org/1999/xlink" x="0px" y="0px"
	 viewBox="0 0 1000 1000" style="enable-background:new 0 0 1000 1000;" xml:space="preserve">
<style type="text/css">
	.st0{fill:#FDD903;}
	.st1{fill:#FEFDF5;}
	.st2{fill:#030200;}
</style>
<g>
	<path class="st0" d="M0.2,825.7c0-4.4,0-8.9,0-13.3c3.7-5.6,2.1-11.9,2.1-17.8c0.1-198.2,0.1-396.3,0-594.5c0-4.7,2.2-10-2-14.2
		c0-3.3,0-6.7,0-10c6.4-3.1,4.5-9.7,5.6-14.6C26.4,67.1,102.9,2.1,198.9,1.6c201.5-1,403-1.1,604.5,0
		c111.5,0.6,196.6,89.2,196.6,201c0,198.7,0,397.4,0,596.1c0,92.7-60.4,170.6-150.1,194.3c-5.5,1.5-12.5-0.2-16.5,5.8
		c-223.3,0-446.6,0-669.9,0c-2.8-6.3-9.2-5.1-14.1-6.6C72.7,968.7,24.8,918.2,6.1,840C4.9,835.1,6.7,828.6,0.2,825.7z M695.2,497.1
		c3.7-2.2,5.5-3.5,7.4-4.3c32.5-13.6,47-39,47.7-73.2c0.8-35.7-11.9-63.9-45-80.8c-20.1-10.3-41.8-15.4-64.1-16.4
		c-124.9-5.8-249.9-1.2-374.8-2.8c-10.2-0.1-10.2,5.1-10.2,12.5c0.1,110,0.3,219.9-0.2,329.9c-0.1,11.8,4.4,13.5,14.5,13.4
		c38.3-0.5,76.7-0.8,115,0.2c13.3,0.3,15.5-4.3,15.2-16.1c-0.8-30.5,0-61.1-0.4-91.6c-0.1-8.6,1.2-12.9,11.5-12.8
		c53.9,0.5,107.8-0.1,161.6,0.4c27,0.3,37.8,11.8,38.3,39.3c0.4,22.8,0.4,45.5-0.1,68.3c-0.2,9.1,2.3,12.6,12.1,12.5
		c40-0.5,80-0.5,120,0c9.5,0.1,12.5-3,12.3-12.4c-0.6-24.4-0.4-48.9-0.1-73.3C756.3,546.2,738.5,514.7,695.2,497.1z"/>
	<path class="st1" d="M0.2,825.7c6.5,2.9,4.7,9.5,5.8,14.4c18.8,78.2,66.7,128.7,143.4,152.3c4.9,1.5,11.4,0.3,14.1,6.6
		c-51.1,0-102.2-0.2-153.3,0.2C1.9,999.3-0.1,997.3,0,989C0.4,934.5,0.2,880.1,0.2,825.7z"/>
	<path class="st1" d="M0.2,185.8c4.2,4.2,2,9.5,2,14.2c0.1,198.2,0.1,396.3,0,594.5c0,6,1.6,12.2-2.1,17.8
		C0.2,603.5,0.2,394.6,0.2,185.8z"/>
	<path class="st2" d="M695.2,497.1c43.3,17.6,61.1,49.2,60.6,92.5c-0.3,24.4-0.4,48.9,0.1,73.3c0.2,9.4-2.7,12.5-12.3,12.4
		c-40-0.4-80-0.5-120,0c-9.8,0.1-12.3-3.4-12.1-12.5c0.5-22.8,0.5-45.5,0.1-68.3c-0.4-27.5-11.2-39-38.3-39.3
		c-53.9-0.5-107.8,0.1-161.6-0.4c-10.3-0.1-11.6,4.2-11.5,12.8c0.4,30.5-0.4,61.1,0.4,91.6c0.3,11.8-1.9,16.5-15.2,16.1
		c-38.3-1-76.6-0.6-115-0.2c-10.1,0.1-14.5-1.6-14.5-13.4c0.5-110,0.3-219.9,0.2-329.9c0-7.3,0-12.6,10.2-12.5
		c124.9,1.7,249.9-3,374.8,2.8c22.3,1,43.9,6.2,64.1,16.4c33.1,16.9,45.7,45.1,45,80.8c-0.7,34.2-15.1,59.7-47.7,73.2
		C700.7,493.6,698.9,494.9,695.2,497.1z M496.5,425.1c0-0.2,0-0.4,0-0.6c-28.3,0-56.6,0.4-84.8-0.2c-10.5-0.2-13.1,5-10.9,13
		c2,7.4-8.4,21.2,9,21.3c57.1,0.3,114.2,0.2,171.4-0.2c11.1-0.1,22.1-3.3,21.6-17.5c-0.5-12.9-10.6-15.7-21.4-15.8
		C553,425,524.8,425.1,496.5,425.1z"/>
	<path class="st0" d="M496.5,425.1c28.3,0,56.6-0.1,84.8,0.1c10.8,0.1,20.9,2.8,21.4,15.8c0.5,14.2-10.5,17.4-21.6,17.5
		c-57.1,0.4-114.2,0.5-171.4,0.2c-17.4-0.1-7-13.9-9-21.3c-2.2-8.1,0.3-13.3,10.9-13c28.3,0.6,56.6,0.2,84.8,0.2
		C496.5,424.7,496.5,424.9,496.5,425.1z"/>
</g>
</svg>
