<?xml version="1.0" encoding="utf-8"?>
<!-- Generator: Adobe Illustrator 25.4.1, SVG Export Plug-In . SVG Version: 6.00 Build 0)  -->
<svg version="1.1" id="Logo" xmlns="http://www.w3.org/2000/svg" xmlns:xlink="http://www.w3.org/1999/xlink" x="0px" y="0px"
	 viewBox="0 0 500 500" style="enable-background:new 0 0 500 500;" xml:space="preserve">
<style type="text/css">
	.st0{fill:#00BAFF;}
</style>
<g id="Logo_1_">
	<path id="white_background" class="st0" d="M369.4,188.3c0.2,2.6,0.2,5.3,0.2,8c0,81.3-61.9,175.1-175.1,175.1v0
		c-33.4,0-66.2-9.5-94.3-27.6c4.9,0.6,9.8,0.9,14.6,0.9c27.7,0,54.6-9.3,76.4-26.4c-26.3-0.5-49.4-17.7-57.5-42.7
		c9.2,1.8,18.7,1.4,27.8-1.1c-28.7-5.8-49.4-31-49.4-60.3c0-0.3,0-0.5,0-0.8c8.6,4.8,18.1,7.4,27.9,7.7c-27-18.1-35.4-54.1-19-82.2
		c31.2,38.5,77.4,61.8,126.8,64.3c-5-21.4,1.8-43.8,17.8-58.8c24.8-23.3,63.8-22.1,87.1,2.7c13.8-2.7,27-7.8,39.1-14.9
		c-4.6,14.2-14.2,26.3-27.1,34c12.2-1.4,24.1-4.7,35.3-9.7C391.8,168.8,381.4,179.6,369.4,188.3z"/>
</g>
<g id="Logo_00000162310689827201818650000005653659105103569031_">
	<path id="white_background_00000080180616255444495560000001901054605659249592_" class="st0" d="M381.3,182.2
		c0.2,2.9,0.2,5.8,0.2,8.8c0,89.5-68.1,192.6-192.6,192.6v-0.1c-36.8,0.1-72.8-10.5-103.8-30.4c5.3,0.6,10.7,1,16.1,1
		c30.5,0,60.1-10.2,84.1-29c-29-0.5-54.4-19.4-63.3-47c10.1,2,20.6,1.6,30.6-1.2c-31.6-6.4-54.3-34.1-54.3-66.4c0-0.3,0-0.6,0-0.9
		c9.4,5.2,19.9,8.2,30.7,8.5c-29.7-19.9-38.9-59.5-21-90.4c34.4,42.3,85.1,68,139.5,70.7c-5.5-23.5,2-48.2,19.6-64.7
		c27.3-25.6,70.2-24.3,95.8,2.9c15.2-3,29.7-8.6,43-16.4c-5.1,15.7-15.6,29-29.8,37.4c13.4-1.6,26.5-5.2,38.9-10.7
		C406,160.7,394.5,172.6,381.3,182.2z"/>
</g>
</svg>
